<?xml version="1.0" encoding="utf-8"?>
<!-- Generator: Adobe Illustrator 19.0.0, SVG Export Plug-In . SVG Version: 6.00 Build 0)  -->
<svg version="1.1" id="Layer_1" xmlns="http://www.w3.org/2000/svg" xmlns:xlink="http://www.w3.org/1999/xlink" x="0px" y="0px"
	 viewBox="0 0 200 200" style="enable-background:new 0 0 200 200;" xml:space="preserve">
<style type="text/css">
	.st0{fill:#FFFFFF;}
	.st1{fill:#0080FF;}
</style>
<g id="XMLID_177_">
	<rect id="XMLID_27_" x="5.2" y="5.2" class="st0" width="189.7" height="189.7"/>
	<path id="XMLID_7_" class="st1" d="M147.6,78.2v43.6c0,6.9-5.6,12.5-12.5,12.5h-18.5v-18.5h6.2c0.5,0,1-0.1,1.5-0.2
		c2.2-0.6,4-2.3,4.5-4.5c0.1-0.5,0.2-1,0.2-1.5v-19c0-0.5-0.1-1-0.2-1.5c-0.6-2.2-2.3-4-4.5-4.5c-0.1,0-0.1,0-0.2,0l-7.4,7.4
		l-0.1,0.1l-3.6,3.6L100,108.6L83.3,91.9l-0.1-0.1l-7.4-7.4c-0.1,0-0.1,0-0.2,0c-2.2,0.6-4,2.3-4.5,4.5c-0.1,0.5-0.2,1-0.2,1.5v19
		c0,0.5,0.1,1,0.2,1.5c0.6,2.2,2.3,4,4.5,4.5c0.5,0.1,1,0.2,1.5,0.2h6.2v18.5H64.9c-6.9,0-12.5-5.6-12.5-12.5V78.2
		c0-4.7,2.6-8.7,6.4-10.9c1.8-1,3.9-1.6,6.1-1.6h18.5L100,82.4l16.7-16.7h18.5c2.2,0,4.3,0.6,6.1,1.6
		C145,69.5,147.6,73.5,147.6,78.2z"/>
</g>
</svg>
